<svg xmlns="http://www.w3.org/2000/svg" viewBox="0 0 24 24"  stroke="white" fill="currentColor" width="24px" height="24px">
  <path d="M22.23 0H1.77C.79 0 0 .77 0 1.72v20.56C0 23.23.79 24 1.77 24h20.45c.98 0 1.77-.77 1.77-1.72V1.72C24 .77 23.21 0 22.23 0zM7.12 20.45H3.56V9h3.56v11.45zm-1.78-13A2.05 2.05 0 013.56 5.4c0-1.13.93-2.05 2.08-2.05 1.15 0 2.08.93 2.08 2.05s-.93 2.05-2.08 2.05h-.03zm15.46 13H17.8v-5.77c0-1.38-.03-3.16-1.93-3.16-1.93 0-2.23 1.5-2.23 3.05v5.88h-3.57V9h3.42v1.56h.05c.48-.9 1.64-1.85 3.37-1.85 3.6 0 4.27 2.37 4.27 5.45v6.29z"/>
</svg>
