 <svg
    xmlns="http://www.w3.org/2000/svg"
    className="h-6 w-6"
    viewBox="0 0 24 24"
    fill="none"
    stroke="white"
    strokeWidth="2"
    strokeLinecap="round"
    strokeLinejoin="round"
  >
    <path d="M23 3a10.7 10.7 0 01-3.1.8 5.3 5.3 0 002.3-2.9 10.7 10.7 0 01-3.4 1.3A5.3 5.3 0 0016 5a5.3 5.3 0 00-5.3 5.3c0 .4.1.8.1 1.2A15.1 15.1 0 011 4.7a5.3 5.3 0 001.6 7 5.3 5.3 0 01-2.4-.7v.1a5.3 5.3 0 004.3 5.2 5.3 5.3 0 01-2.4.1 5.3 5.3 0 005 3.7A10.7 10.7 0 010 21a15.1 15.1 0 008.2 2.4c9.8 0 15.2-8.1 15.2-15.2v-.7a10.7 10.7 0 002.7-2.7z" />
  </svg>