 <svg
    xmlns="http://www.w3.org/2000/svg"
    className="h-6 w-6"
    viewBox="0 0 24 24"
    fill="none"
    stroke="white"
    strokeWidth="2"
    strokeLinecap="round"
    strokeLinejoin="round"
  >
    <path d="M23.49 6.03a2.6 2.6 0 00-1.84-1.84C20.09 3.8 12 3.8 12 3.8s-8.09 0-9.65.39a2.6 2.6 0 00-1.84 1.84C.39 7.09.39 12 .39 12s0 4.91.39 5.97a2.6 2.6 0 001.84 1.84C3.91 21.2 12 21.2 12 21.2s8.09 0 9.65-.39a2.6 2.6 0 001.84-1.84C23.61 16.91 23.61 12 23.61 12s0-4.91-.12-5.97zM9.75 15V9l5.25 3-5.25 3z" />
  </svg>